<?xml version="1.0" standalone="no"?>
<!DOCTYPE svg PUBLIC "-//W3C//DTD SVG 20010904//EN"
 "http://www.w3.org/TR/2001/REC-SVG-20010904/DTD/svg10.dtd">
<svg version="1.0" xmlns="http://www.w3.org/2000/svg"
 width="512.000000pt" height="512.000000pt" viewBox="0 0 512.000000 512.000000"
 preserveAspectRatio="xMidYMid meet">
<metadata>
Created by potrace 1.16, written by Peter Selinger 2001-2019
</metadata>
<g transform="translate(0.000000,512.000000) scale(0.100000,-0.100000)"
fill="#000000" stroke="none">
<path d="M402 4694 c-13 -9 -27 -27 -32 -40 -11 -29 5 -81 30 -94 10 -6 98
-10 195 -10 97 0 185 4 195 10 25 13 41 65 30 94 -19 51 -41 56 -225 56 -140
0 -175 -3 -193 -16z"/>
<path d="M4508 4574 c-42 -22 -58 -63 -58 -144 l0 -70 -144 0 c-130 0 -146 -2
-170 -21 -35 -28 -36 -80 -1 -115 l25 -25 184 3 c181 3 185 3 212 28 33 31 54
78 54 122 0 32 6 27 168 -135 l168 -168 -165 -164 -166 -164 -7 46 c-8 56 -33
92 -79 115 -31 16 -71 18 -402 18 l-367 0 -76 60 c-104 83 -146 111 -270 180
l-109 60 293 0 c277 0 293 1 312 20 43 43 35 111 -16 130 -35 14 -1356 13
-1499 0 -302 -29 -594 -133 -835 -297 -88 -60 -115 -95 -105 -136 7 -25 52
-57 82 -57 10 0 59 28 108 61 179 120 389 207 609 252 160 32 451 32 614 -1
516 -104 940 -429 1167 -897 297 -610 184 -1340 -282 -1825 -230 -240 -481
-392 -784 -474 -193 -53 -247 -56 -1002 -56 l-698 0 -24 -25 c-35 -34 -34 -86
2 -115 l27 -21 736 4 c696 4 741 5 845 25 597 114 1076 481 1334 1022 287 601
201 1345 -216 1863 l-54 67 266 0 265 0 0 -79 c0 -71 3 -83 26 -110 31 -37 87
-54 132 -41 23 6 104 78 260 230 125 122 232 232 239 244 7 11 12 43 13 71 l0
49 -227 229 c-126 126 -240 235 -255 243 -35 18 -95 17 -130 -2z"/>
<path d="M397 4288 c-24 -19 -38 -64 -27 -92 21 -55 26 -56 388 -56 l333 0 24
25 c33 32 33 78 0 110 l-24 25 -339 0 c-255 0 -342 -3 -355 -12z"/>
<path d="M2332 3845 c-474 -86 -871 -436 -1016 -894 -40 -126 -57 -242 -57
-391 0 -274 68 -498 219 -725 174 -262 454 -459 770 -542 130 -34 389 -43 528
-19 483 84 882 431 1028 895 40 126 57 242 57 391 0 274 -68 498 -219 725
-194 291 -513 500 -859 560 -105 18 -349 18 -451 0z m498 -163 c322 -86 569
-273 733 -557 164 -283 193 -649 77 -968 -114 -313 -390 -581 -705 -686 -151
-50 -250 -64 -415 -58 -208 7 -380 56 -544 154 -356 214 -566 582 -566 993 0
553 378 1015 925 1131 122 25 382 21 495 -9z"/>
<path d="M1923 3145 c-78 -39 -120 -80 -157 -153 -50 -99 -42 -163 24 -177 44
-10 75 14 94 73 18 53 73 114 119 131 45 17 124 13 167 -9 71 -36 118 -124
104 -197 -17 -91 -76 -185 -340 -540 -78 -105 -147 -200 -153 -212 -18 -33
-13 -70 14 -96 l24 -25 306 0 c292 0 306 1 325 20 27 27 26 81 -1 106 -19 17
-43 19 -240 24 l-219 5 111 150 c260 351 322 464 323 595 1 66 -3 84 -32 142
-36 74 -95 133 -170 169 -36 18 -69 24 -137 27 -87 3 -93 2 -162 -33z"/>
<path d="M3043 3151 c-42 -26 -84 -90 -262 -401 -221 -386 -228 -400 -212
-438 8 -19 24 -35 43 -41 19 -7 124 -11 259 -11 l229 0 0 -135 c0 -122 2 -137
20 -155 30 -30 83 -27 109 6 19 24 21 40 21 155 l0 129 29 0 c46 0 87 19 100
46 16 35 14 47 -10 78 -17 22 -28 26 -70 26 l-49 0 0 322 c0 300 -1 324 -20
363 -35 72 -119 97 -187 56z m57 -451 l0 -290 -166 0 c-153 0 -166 1 -159 17
13 37 315 563 322 563 2 0 3 -130 3 -290z"/>
<path d="M1248 3788 c-33 -27 -134 -156 -195 -249 -294 -449 -370 -1020 -203
-1533 67 -206 187 -429 312 -578 l40 -48 -266 0 -266 0 0 79 c0 89 -17 123
-77 148 -72 30 -87 20 -338 -224 -126 -124 -235 -235 -242 -246 -7 -12 -12
-44 -13 -71 l0 -50 213 -214 c246 -249 274 -272 329 -272 89 0 128 48 128 160
l0 70 155 0 c91 0 164 4 178 11 51 23 55 93 9 129 -22 18 -41 20 -204 20 -190
0 -224 -6 -263 -50 -14 -15 -22 -42 -25 -83 l-5 -61 -175 171 -175 172 177
178 178 178 0 -53 c0 -60 18 -102 54 -126 22 -14 68 -16 385 -16 l359 0 31 26
c17 14 35 42 41 64 14 52 -1 87 -74 170 -179 203 -310 476 -368 762 -33 163
-33 454 -1 614 58 282 177 531 357 748 41 49 66 88 66 103 0 27 -17 64 -34 75
-18 12 -71 9 -88 -4z"/>
<path d="M4005 955 c-16 -15 -25 -36 -25 -55 0 -19 9 -40 25 -55 l24 -25 336
0 c200 0 344 4 355 10 25 13 41 65 30 94 -21 55 -26 56 -388 56 l-333 0 -24
-25z"/>
<path d="M4327 558 c-24 -19 -38 -64 -27 -92 19 -51 41 -56 225 -56 184 0 206
5 225 56 11 29 -5 81 -30 94 -28 15 -372 13 -393 -2z"/>
</g>
</svg>
