<?xml version="1.0" standalone="no"?>
<!DOCTYPE svg PUBLIC "-//W3C//DTD SVG 20010904//EN"
 "http://www.w3.org/TR/2001/REC-SVG-20010904/DTD/svg10.dtd">
<svg version="1.0" xmlns="http://www.w3.org/2000/svg"
 width="512.000000pt" height="512.000000pt" viewBox="0 0 512.000000 512.000000"
 preserveAspectRatio="xMidYMid meet">
<metadata>
Created by potrace 1.16, written by Peter Selinger 2001-2019
</metadata>
<g transform="translate(0.000000,512.000000) scale(0.100000,-0.100000)"
fill="#000000" stroke="none">
<path d="M865 5103 c-44 -23 -84 -63 -108 -108 -19 -35 -22 -60 -25 -207 l-4
-168 -67 0 c-104 0 -165 -22 -227 -84 -112 -113 -113 -279 -1 -391 64 -63 121
-85 224 -85 l73 0 0 -170 0 -170 -68 0 c-105 0 -166 -22 -228 -84 -112 -113
-113 -279 -1 -391 64 -63 121 -85 224 -85 l73 0 0 -170 0 -170 -68 0 c-105 0
-166 -22 -228 -84 -112 -113 -113 -279 -1 -391 64 -63 121 -85 224 -85 l73 0
0 -170 0 -170 -68 0 c-105 0 -166 -22 -228 -84 -112 -113 -113 -279 -1 -391
64 -63 121 -85 224 -85 l73 0 0 -170 0 -170 -68 0 c-105 0 -166 -22 -228 -84
-112 -113 -113 -279 -1 -391 63 -63 122 -85 223 -85 l72 0 4 -147 c4 -162 15
-199 75 -254 68 -63 -31 -59 1340 -57 l1248 3 20 32 20 32 93 1 c75 0 92 -3
92 -15 0 -8 9 -24 20 -35 19 -19 33 -20 468 -20 343 1 456 4 484 14 56 20 111
69 144 128 l29 53 3 345 c4 379 -1 423 -49 490 l-30 41 27 34 c50 66 54 100
54 460 0 360 -5 404 -56 464 l-25 29 31 48 c17 27 35 64 40 84 13 46 13 694 0
740 -5 20 -23 57 -40 84 l-31 48 25 29 c51 60 56 104 56 464 0 351 -4 391 -49
453 -17 25 -19 32 -7 41 8 6 23 34 35 62 21 49 22 59 19 452 l-3 402 -27 46
c-15 25 -46 59 -69 75 l-42 29 -286 0 -286 0 -20 -32 -20 -32 -92 -1 c-70 0
-93 3 -93 13 0 7 -9 23 -20 35 l-21 22 -1447 0 c-1298 -1 -1450 -2 -1477 -17z
m231 -677 c30 -30 34 -40 34 -85 0 -41 -5 -56 -27 -81 -38 -43 -79 -50 -283
-50 -204 0 -245 7 -282 50 -23 25 -28 40 -28 81 0 45 4 55 34 85 l34 34 242 0
242 0 34 -34z m3476 -485 l33 -29 3 -349 c3 -347 3 -350 -19 -377 -38 -48 -73
-56 -239 -56 l-150 0 0 386 0 386 34 34 34 34 136 0 136 0 32 -29z m-3476
-415 c30 -30 34 -40 34 -85 0 -41 -5 -56 -27 -81 -38 -43 -79 -50 -283 -50
-204 0 -245 7 -282 50 -23 25 -28 40 -28 81 0 45 4 55 34 85 l34 34 242 0 242
0 34 -34z m3454 -561 c58 -30 60 -42 60 -405 0 -363 -2 -375 -60 -405 -22 -12
-66 -15 -190 -15 l-160 0 0 50 c0 68 -22 118 -54 126 -26 6 -26 7 -26 103 l0
96 30 17 c17 9 35 29 40 43 6 15 10 112 10 216 l0 189 160 0 c124 0 168 -3
190 -15z m-3454 -339 c30 -30 34 -40 34 -85 0 -63 -34 -107 -95 -121 -52 -12
-378 -12 -430 0 -61 14 -95 58 -95 121 0 45 4 55 34 85 l34 34 242 0 242 0 34
-34z m3426 -646 c20 -6 48 -24 62 -41 l26 -31 0 -334 c0 -448 14 -424 -242
-424 l-168 0 0 420 0 420 143 0 c78 0 159 -5 179 -10z m-3426 -254 c30 -30 34
-40 34 -85 0 -63 -34 -107 -95 -121 -52 -12 -378 -12 -430 0 -61 14 -95 58
-95 121 0 45 4 55 34 85 l34 34 242 0 242 0 34 -34z m1188 -42 c14 -53 29 -54
591 -54 571 0 558 1 589 -64 14 -29 16 -80 16 -376 0 -379 -2 -394 -64 -428
-28 -16 -91 -17 -756 -17 -808 0 -770 -3 -804 69 -23 49 -24 701 -1 750 19 40
62 66 108 66 52 0 86 16 105 50 l17 30 96 0 c96 0 97 0 103 -26z m2288 -732
l33 -32 3 -338 3 -338 -23 -34 c-31 -45 -72 -59 -180 -59 l-88 -1 0 421 0 421
110 -4 c109 -3 110 -3 142 -36z m-3476 -126 c30 -30 34 -40 34 -85 0 -63 -34
-107 -95 -121 -52 -12 -378 -12 -430 0 -61 14 -95 58 -95 121 0 45 4 55 34 85
l34 34 242 0 242 0 34 -34z"/>
<path d="M2046 1389 c-34 -27 -36 -77 -3 -107 l23 -22 595 0 c585 0 596 0 617
20 32 30 30 82 -4 109 -26 21 -35 21 -614 21 -579 0 -588 0 -614 -21z"/>
<path d="M2040 1080 c-25 -25 -26 -71 -1 -101 l19 -24 600 0 c576 0 601 1 621
19 27 25 28 79 1 106 -20 20 -33 20 -620 20 -587 0 -600 0 -620 -20z"/>
</g>
</svg>
