<?xml version="1.0" standalone="no"?>
<!DOCTYPE svg PUBLIC "-//W3C//DTD SVG 20010904//EN"
 "http://www.w3.org/TR/2001/REC-SVG-20010904/DTD/svg10.dtd">
<svg version="1.0" xmlns="http://www.w3.org/2000/svg"
 width="512.000000pt" height="512.000000pt" viewBox="0 0 512.000000 512.000000"
 preserveAspectRatio="xMidYMid meet">
<metadata>
Created by potrace 1.16, written by Peter Selinger 2001-2019
</metadata>
<g transform="translate(0.000000,512.000000) scale(0.100000,-0.100000)"
fill="#000000" stroke="none">
<path d="M3224 5101 c-350 -64 -617 -204 -869 -456 -190 -189 -312 -385 -394
-630 -97 -293 -107 -639 -26 -941 43 -157 125 -342 206 -460 l28 -41 -197
-195 -197 -195 -80 -1 c-86 -1 -168 -24 -239 -66 -61 -36 -406 -387 -406 -413
0 -35 11 -53 41 -68 55 -29 63 -23 258 168 212 210 233 222 361 222 130 0 234
-67 289 -184 21 -46 26 -71 26 -136 0 -141 31 -105 -737 -872 -596 -596 -687
-683 -713 -683 -25 0 -59 30 -227 198 -168 167 -198 202 -198 227 0 25 56 85
409 440 251 251 412 420 416 435 3 16 -2 37 -15 57 -17 28 -26 33 -57 33 -37
0 -53 -15 -455 -417 -229 -230 -423 -432 -432 -450 -22 -45 -21 -147 3 -198
26 -54 413 -439 463 -460 53 -21 150 -20 196 4 53 28 1425 1405 1450 1456 37
75 53 143 54 222 l1 78 195 196 195 197 61 -40 c187 -122 524 -238 690 -238
46 0 86 24 86 53 0 9 21 11 84 7 77 -5 86 -7 106 -33 18 -23 29 -27 72 -27 67
0 232 34 343 71 549 183 950 635 1078 1214 29 136 32 503 4 632 -64 297 -174
528 -356 745 -233 276 -541 458 -922 543 -117 26 -465 30 -595 6z m383 -592
c228 -25 426 -116 588 -270 96 -92 156 -171 211 -281 166 -331 141 -720 -66
-1029 -96 -142 -280 -294 -437 -359 -148 -62 -211 -74 -398 -74 -205 -1 -280
15 -450 99 -275 134 -475 385 -540 675 -24 109 -35 128 -87 144 -15 5 -18 18
-18 89 l0 83 32 9 c39 12 50 33 76 145 42 182 130 340 266 475 169 169 370
267 601 294 101 12 116 12 222 0z m-1245 -2153 l88 -92 -163 -162 -162 -162
-42 55 c-24 30 -66 71 -94 91 l-51 37 164 164 c89 89 165 162 168 162 3 -1 44
-43 92 -93z"/>
<path d="M3395 4236 c-114 -36 -199 -109 -247 -212 -37 -80 -48 -172 -25 -208
46 -70 137 -26 137 67 1 67 62 157 133 193 41 22 136 29 180 15 170 -56 226
-272 104 -399 -42 -45 -93 -69 -157 -78 -90 -12 -90 -13 -90 -242 0 -195 0
-199 23 -220 38 -36 88 -28 112 19 11 20 15 64 15 163 l0 134 48 16 c298 101
359 496 107 689 -90 68 -238 95 -340 63z"/>
<path d="M3456 2959 c-53 -41 -23 -129 44 -129 34 0 80 38 80 65 0 29 -29 72
-52 79 -36 9 -43 8 -72 -15z"/>
</g>
</svg>
