<?xml version="1.0" standalone="no"?>
<!DOCTYPE svg PUBLIC "-//W3C//DTD SVG 20010904//EN"
 "http://www.w3.org/TR/2001/REC-SVG-20010904/DTD/svg10.dtd">
<svg version="1.0" xmlns="http://www.w3.org/2000/svg"
 width="512.000000pt" height="512.000000pt" viewBox="0 0 512.000000 512.000000"
 preserveAspectRatio="xMidYMid meet">
<metadata>
Created by potrace 1.16, written by Peter Selinger 2001-2019
</metadata>
<g transform="translate(0.000000,512.000000) scale(0.100000,-0.100000)"
fill="#000000" stroke="none">
<path d="M905 5113 c-110 -23 -239 -97 -314 -179 -97 -106 -137 -225 -128
-379 6 -104 20 -158 48 -186 13 -13 25 -49 34 -105 30 -168 99 -321 193 -425
l54 -59 -39 -16 c-276 -113 -306 -132 -347 -217 -21 -42 -29 -82 -41 -202 -9
-83 -12 -163 -9 -180 10 -44 38 -96 71 -127 58 -55 76 -58 402 -58 l300 0 21
27 c26 33 21 79 -11 106 -19 15 -49 17 -301 17 l-279 0 -24 25 c-29 28 -29 30
-14 184 11 114 30 171 62 184 6 3 94 39 195 81 l182 75 43 -16 c62 -24 225
-23 298 0 l56 19 173 -71 c216 -90 227 -95 244 -129 15 -29 36 -186 36 -266 0
-36 -5 -48 -26 -65 -25 -19 -40 -21 -199 -21 -150 0 -176 -2 -194 -17 -32 -27
-37 -73 -11 -106 l22 -28 213 3 212 3 42 29 c51 36 89 97 97 157 8 58 -21 315
-41 362 -36 86 -87 122 -297 207 l-106 43 46 58 c26 32 62 83 81 114 43 70 97
227 112 324 6 41 19 86 30 100 10 14 23 46 28 71 15 66 13 227 -4 289 -35 131
-126 246 -242 303 -58 29 -76 32 -201 39 -75 5 -162 15 -192 23 -51 15 -224
20 -275 9z m460 -570 c74 -92 121 -135 181 -164 74 -37 74 -37 44 -154 -61
-240 -227 -415 -410 -431 -179 -17 -357 123 -441 345 -20 55 -52 191 -46 197
2 2 41 10 88 19 156 27 304 89 401 168 29 24 62 49 73 55 33 20 77 6 110 -35z"/>
<path d="M3796 5105 c-189 -48 -366 -193 -451 -370 -68 -141 -68 -142 -72
-650 l-4 -459 -28 -32 c-16 -18 -36 -51 -44 -75 -17 -45 -37 -220 -37 -315 0
-69 40 -145 98 -188 l44 -31 662 0 662 0 42 28 c59 39 94 96 100 163 2 30 -1
112 -7 181 -13 132 -35 205 -72 239 -18 16 -19 37 -19 433 0 433 -6 511 -41
624 -24 76 -56 110 -100 105 -21 -2 -33 5 -50 27 -12 17 -41 49 -63 73 -34 35
-40 48 -38 76 4 47 -10 69 -63 101 -99 57 -179 77 -325 81 -96 2 -152 -1 -194
-11z m407 -649 c64 -63 111 -100 152 -121 33 -16 61 -29 62 -30 1 0 -4 -29
-12 -64 -44 -185 -159 -346 -295 -410 -47 -22 -69 -26 -145 -26 -79 0 -97 4
-150 29 -78 38 -170 131 -217 221 -34 66 -78 184 -78 210 0 6 39 21 88 33 109
27 246 94 337 167 100 79 127 96 148 89 10 -3 60 -47 110 -98z m184 -872 c156
-63 176 -75 191 -109 12 -26 32 -172 32 -232 l0 -33 -585 0 c-693 0 -631 -13
-622 129 3 47 8 93 12 102 3 9 79 46 171 84 l166 68 71 -13 c135 -25 281 -10
375 39 20 11 41 20 45 21 5 0 69 -25 144 -56z"/>
<path d="M22 2760 c-33 -31 -30 -92 4 -119 26 -21 35 -21 596 -21 l569 0 24
25 c33 32 33 78 0 110 l-24 25 -574 0 c-563 0 -574 0 -595 -20z"/>
<path d="M2822 2760 c-33 -31 -30 -92 4 -119 26 -21 35 -21 596 -21 l569 0 24
25 c16 15 25 36 25 55 0 19 -9 40 -25 55 l-24 25 -574 0 c-563 0 -574 0 -595
-20z"/>
<path d="M79 2447 c-18 -12 -44 -38 -57 -57 -22 -33 -23 -42 -20 -185 3 -140
5 -152 27 -184 13 -18 42 -42 65 -52 39 -18 88 -19 1066 -19 978 0 1027 1
1066 19 23 10 52 34 65 52 22 32 24 44 27 184 3 143 2 152 -20 185 -13 19 -39
45 -57 57 l-34 23 -1047 0 -1047 0 -34 -23z m1651 -232 l0 -105 -787 2 -788 3
-3 89 c-2 49 -1 95 2 103 4 11 147 13 791 13 l785 0 0 -105z m438 4 c2 -74 -1
-99 -12 -108 -9 -8 -54 -11 -142 -9 l-129 3 -3 108 -3 108 143 -3 143 -3 3
-96z"/>
<path d="M2879 2447 c-18 -12 -44 -38 -57 -57 -22 -33 -23 -42 -20 -185 3
-140 5 -152 27 -184 13 -18 42 -42 65 -52 39 -18 88 -19 1066 -19 978 0 1027
1 1066 19 23 10 52 34 65 52 22 32 24 44 27 184 3 143 2 152 -20 185 -13 19
-39 45 -57 57 l-34 23 -1047 0 -1047 0 -34 -23z m1001 -232 l0 -105 -462 2
-463 3 -3 89 c-2 49 -1 95 2 103 4 10 92 13 466 13 l460 0 0 -105z m1088 6 c2
-60 -1 -98 -9 -107 -9 -12 -89 -14 -465 -14 l-454 0 0 110 0 110 463 -2 462
-3 3 -94z"/>
<path d="M20 1780 c-28 -28 -27 -90 1 -116 20 -18 47 -19 578 -22 306 -1 566
0 579 3 59 14 80 80 41 129 l-20 26 -580 0 c-566 0 -579 0 -599 -20z"/>
<path d="M2820 1780 c-28 -28 -27 -90 1 -116 20 -18 47 -19 578 -22 306 -1
566 0 579 3 59 14 80 80 41 129 l-20 26 -580 0 c-566 0 -579 0 -599 -20z"/>
<path d="M115 1489 c-38 -12 -68 -37 -94 -80 -19 -30 -21 -50 -21 -172 0 -149
6 -171 57 -218 15 -15 43 -31 62 -38 47 -15 1340 -16 1374 0 56 26 51 117 -8
139 -15 6 -145 10 -306 10 l-279 0 0 105 0 105 633 -2 632 -3 0 -100 0 -100
-193 -5 -194 -5 -24 -28 c-31 -36 -31 -71 1 -102 24 -25 25 -25 218 -25 118 0
207 4 228 11 40 14 85 53 105 91 20 38 20 288 0 326 -21 41 -68 81 -107 92
-44 13 -2042 12 -2084 -1z m635 -254 l0 -105 -297 2 -298 3 -3 89 c-2 49 -1
95 2 103 4 10 64 13 301 13 l295 0 0 -105z"/>
<path d="M2915 1489 c-38 -12 -68 -37 -94 -80 -19 -30 -21 -50 -21 -172 0
-149 6 -171 57 -218 15 -15 43 -31 62 -38 48 -16 2034 -16 2082 0 19 7 47 23
62 38 51 47 57 69 57 216 0 98 -4 144 -14 163 -21 41 -68 81 -107 92 -44 13
-2042 12 -2084 -1z m1505 -193 c0 -23 -3 -71 -6 -105 l-7 -61 -726 2 -726 3
-3 89 c-2 49 -1 95 2 103 4 11 137 13 736 13 l730 0 0 -44z m545 -61 l0 -100
-197 -3 -198 -2 0 105 0 105 198 -2 197 -3 0 -100z"/>
<path d="M50 823 c-52 -19 -69 -94 -30 -133 20 -20 33 -20 599 -20 l580 0 20
26 c35 45 26 95 -20 119 -24 13 -114 15 -581 14 -304 0 -560 -3 -568 -6z"/>
<path d="M2850 823 c-52 -19 -69 -94 -30 -133 20 -20 33 -20 599 -20 l580 0
20 26 c35 45 26 95 -20 119 -24 13 -114 15 -581 14 -304 0 -560 -3 -568 -6z"/>
<path d="M88 500 c-20 -11 -47 -34 -60 -52 -21 -30 -23 -45 -26 -183 -3 -143
-2 -152 20 -185 13 -19 39 -45 57 -57 l34 -23 1047 0 1047 0 34 23 c18 12 44
38 57 57 22 33 23 42 20 185 -3 138 -5 153 -26 183 -13 18 -41 41 -62 52 -38
20 -62 20 -1072 20 -1002 -1 -1034 -1 -1070 -20z m992 -240 l0 -110 -462 2
-463 3 -3 95 c-2 80 0 97 15 107 13 10 119 13 465 13 l448 0 0 -110z m1078
102 c9 -6 12 -35 10 -108 l-3 -99 -462 -3 -463 -2 0 110 0 110 453 0 c248 0
458 -4 465 -8z"/>
<path d="M2888 500 c-20 -11 -47 -34 -60 -52 -21 -30 -23 -45 -26 -183 -3
-143 -2 -152 20 -185 13 -19 39 -45 57 -57 l34 -23 1047 0 1047 0 34 23 c18
12 44 38 57 57 22 33 23 42 20 185 -3 138 -5 153 -26 183 -47 65 -76 72 -307
72 -126 0 -214 -4 -226 -11 -43 -23 -42 -106 1 -129 10 -6 101 -10 202 -10
101 0 189 -4 196 -8 9 -6 12 -35 10 -108 l-3 -99 -462 -3 -463 -2 0 110 0 110
124 0 c123 0 125 0 145 26 28 35 27 75 -2 102 l-23 22 -680 0 c-652 -1 -680
-2 -716 -20z m992 -240 l0 -110 -462 2 -463 3 -3 95 c-2 80 0 97 15 107 13 10
119 13 465 13 l448 0 0 -110z"/>
</g>
</svg>
