<?xml version="1.0" standalone="no"?>
<!DOCTYPE svg PUBLIC "-//W3C//DTD SVG 20010904//EN"
 "http://www.w3.org/TR/2001/REC-SVG-20010904/DTD/svg10.dtd">
<svg version="1.0" xmlns="http://www.w3.org/2000/svg"
 width="512.000000pt" height="512.000000pt" viewBox="0 0 512.000000 512.000000"
 preserveAspectRatio="xMidYMid meet">
<metadata>
Created by potrace 1.16, written by Peter Selinger 2001-2019
</metadata>
<g transform="translate(0.000000,512.000000) scale(0.100000,-0.100000)"
fill="#000000" stroke="none">
<path d="M3015 5103 c-44 -23 -84 -63 -108 -108 -17 -32 -21 -57 -20 -121 l0
-80 -50 -18 c-67 -24 -149 -103 -183 -175 -35 -73 -42 -161 -20 -264 56 -275
241 -506 498 -626 61 -29 97 -54 138 -97 60 -62 145 -122 215 -151 l45 -18 0
-96 0 -97 -30 -12 c-40 -17 -93 -70 -115 -116 -10 -22 -20 -71 -23 -111 l-5
-73 -34 0 c-62 0 -119 -43 -148 -112 -11 -29 -15 -76 -15 -206 l0 -169 -88 -5
c-107 -6 -154 -26 -190 -81 -26 -39 -27 -47 -30 -195 -3 -126 0 -164 13 -198
21 -55 74 -102 125 -110 37 -6 40 -9 40 -40 l0 -34 -365 0 c-249 0 -372 -4
-389 -11 -31 -14 -49 -57 -40 -93 14 -56 15 -56 421 -56 l373 0 0 -75 0 -75
-565 0 c-603 0 -619 1 -644 48 -6 12 -11 39 -11 61 l0 41 93 0 c85 0 96 2 115
23 27 29 28 77 3 108 -19 24 -22 24 -198 24 -178 0 -180 0 -220 -27 -69 -45
-78 -78 -78 -269 0 -163 0 -166 27 -206 27 -42 95 -83 136 -83 18 0 22 -6 22
-35 l0 -35 -684 0 c-461 0 -694 -3 -713 -11 -40 -15 -73 -48 -94 -94 -25 -54
-27 -305 -4 -363 29 -67 86 -112 145 -112 l30 0 0 -253 c0 -212 2 -256 16
-275 l15 -22 2024 0 2024 0 20 26 c20 25 21 39 21 234 0 195 -1 209 -21 234
-29 37 -89 37 -118 0 -19 -24 -21 -40 -21 -185 l0 -159 -580 0 -580 0 0 855 0
855 580 0 580 0 0 -544 c0 -526 1 -544 20 -568 36 -46 106 -42 129 9 8 16 11
189 11 563 0 537 0 540 20 540 27 0 90 32 113 58 35 39 46 92 47 227 0 145 -9
190 -47 235 -39 47 -76 61 -179 67 l-94 6 0 187 c0 178 -1 189 -22 220 -33 48
-70 72 -121 77 l-45 5 -7 71 c-4 40 -13 87 -21 107 -18 43 -77 105 -115 121
l-29 11 1 97 0 96 82 40 c60 29 103 60 162 117 56 54 96 84 135 100 80 33 216
127 282 195 155 163 261 420 243 590 -13 126 -105 249 -217 291 l-51 19 2 75
c3 116 -36 188 -124 229 -38 18 -80 19 -760 18 -636 0 -723 -2 -750 -16z
m1462 -159 c22 -22 25 -32 20 -67 -11 -79 -3 -77 -399 -77 l-349 0 -24 -25
c-14 -13 -25 -36 -25 -50 0 -14 11 -37 25 -50 l24 -25 281 0 280 0 0 -313 c0
-249 -3 -325 -15 -372 -61 -234 -283 -405 -525 -405 -233 0 -441 151 -521 380
-21 61 -23 84 -27 388 l-4 322 115 0 c100 0 117 2 141 21 33 26 35 73 4 106
-21 22 -26 23 -205 23 -182 0 -184 0 -208 25 -17 16 -25 35 -25 60 0 25 8 44
25 60 l24 25 681 0 681 0 26 -26z m-1407 -611 c0 -178 5 -337 11 -362 5 -24 7
-46 5 -49 -3 -2 -45 35 -93 84 -102 102 -161 203 -193 330 -25 95 -25 138 -1
189 38 81 112 123 224 124 l47 1 0 -317z m1577 290 c44 -20 91 -78 104 -127
20 -75 -24 -237 -98 -360 -35 -57 -190 -223 -199 -213 -3 2 0 33 6 68 5 35 10
199 10 363 l0 299 71 -7 c40 -3 87 -14 106 -23z m-797 -1288 l0 -75 -85 0 -85
0 0 75 0 75 85 0 85 0 0 -75z m146 -258 c19 -22 24 -39 24 -83 l0 -54 -250 0
-250 0 0 56 c0 48 4 59 30 85 l30 30 196 -3 196 -3 24 -28z m222 -464 l2 -173
-450 0 -450 0 0 168 c0 93 3 172 7 175 3 4 205 6 447 5 l441 -3 3 -172z m300
-335 c7 -7 12 -39 12 -75 l0 -63 -665 0 -665 0 -31 28 c-24 21 -32 38 -36 75
l-6 47 690 0 c522 0 692 -3 701 -12z m-1488 -1603 l0 -525 -580 0 -580 0 0
525 0 525 580 0 580 0 0 -525z m-1320 225 l0 -70 -575 0 c-387 0 -582 3 -598
11 -30 14 -45 39 -53 89 l-7 40 617 0 616 0 0 -70z m-670 -285 c0 -9 11 -27
25 -40 l24 -25 311 0 310 0 0 -200 0 -200 -580 0 -580 0 0 200 0 200 121 0
c66 0 129 4 139 10 10 5 23 23 28 40 l11 30 95 0 c80 0 96 -3 96 -15z"/>
</g>
</svg>
