<?xml version="1.0" standalone="no"?>
<!DOCTYPE svg PUBLIC "-//W3C//DTD SVG 20010904//EN"
 "http://www.w3.org/TR/2001/REC-SVG-20010904/DTD/svg10.dtd">
<svg version="1.0" xmlns="http://www.w3.org/2000/svg"
 width="512.000000pt" height="512.000000pt" viewBox="0 0 512.000000 512.000000"
 preserveAspectRatio="xMidYMid meet">
<metadata>
Created by potrace 1.16, written by Peter Selinger 2001-2019
</metadata>
<g transform="translate(0.000000,512.000000) scale(0.100000,-0.100000)"
fill="#000000" stroke="none">
<path d="M2165 5104 c-45 -23 -85 -65 -106 -109 -25 -54 -28 -315 -3 -373 27
-65 110 -132 164 -132 19 0 20 -6 20 -110 l0 -109 -37 -7 c-263 -45 -520 -139
-736 -267 l-79 -47 -43 47 c-23 27 -54 62 -68 79 l-26 31 21 42 c25 51 27 130
5 183 -20 49 -101 135 -149 159 -44 23 -134 25 -181 5 -18 -7 -117 -89 -222
-181 -246 -217 -293 -262 -312 -299 -23 -43 -22 -142 1 -185 27 -50 116 -142
153 -157 42 -18 141 -18 175 0 28 15 21 21 137 -106 l34 -37 -45 -58 c-361
-460 -520 -1069 -432 -1653 140 -939 887 -1674 1832 -1804 143 -20 442 -21
577 -1 224 32 436 91 473 131 30 34 28 65 -6 97 -35 34 -54 34 -167 -3 -515
-164 -1123 -93 -1593 187 -533 317 -887 852 -967 1460 -135 1029 554 1997
1572 2208 889 185 1798 -263 2193 -1080 137 -282 200 -557 200 -870 0 -723
-379 -1373 -1013 -1739 -68 -39 -82 -90 -39 -138 30 -35 79 -23 192 48 144 90
236 162 357 278 188 180 320 360 438 597 297 598 299 1299 5 1897 -68 138
-155 278 -238 385 l-45 58 34 37 c116 127 109 121 137 106 31 -16 129 -18 167
-4 37 14 122 97 153 149 31 53 36 147 9 197 -29 55 -77 94 -116 94 -42 0 -54
-7 -70 -37 -18 -35 -13 -60 19 -96 17 -19 30 -44 30 -56 0 -24 -79 -111 -101
-111 -22 0 -54 26 -282 228 -155 137 -207 190 -207 207 0 28 80 115 106 115
11 0 65 -40 121 -89 55 -50 112 -93 126 -96 34 -9 84 20 92 53 3 14 1 37 -5
51 -13 30 -206 200 -247 218 -40 17 -139 16 -178 -3 -44 -21 -132 -114 -152
-161 -22 -54 -20 -133 5 -184 l21 -42 -26 -31 c-14 -17 -45 -53 -69 -79 l-43
-48 -68 42 c-203 125 -482 228 -745 273 l-38 7 0 109 c0 104 1 110 20 110 54
0 137 67 164 132 23 53 23 313 0 366 -19 47 -58 88 -106 113 -35 18 -63 19
-400 19 -309 0 -367 -2 -393 -16z m733 -150 c21 -14 22 -22 22 -149 0 -127 -1
-135 -22 -149 -19 -14 -69 -16 -338 -16 -269 0 -319 2 -338 16 -21 14 -22 22
-22 149 0 127 1 135 22 149 19 14 69 16 338 16 269 0 319 -2 338 -16z m-178
-566 l0 -103 -160 0 -160 0 0 103 0 102 160 0 160 0 0 -102z m-1660 -38 c35
-19 82 -89 76 -114 -3 -13 -90 -97 -208 -202 -224 -199 -255 -224 -277 -224
-24 0 -101 87 -101 115 0 19 49 68 232 229 128 114 238 206 246 206 7 0 22 -4
32 -10z m139 -425 l62 -70 -48 -40 c-26 -22 -80 -70 -119 -107 l-70 -68 -67
77 c-65 74 -67 78 -50 95 64 63 210 187 219 185 6 -1 39 -33 73 -72z m2917
-26 c129 -114 125 -94 34 -197 l-54 -61 -71 67 c-38 37 -92 85 -118 107 l-48
40 63 72 c35 40 67 73 71 73 5 0 60 -45 123 -101z"/>
<path d="M2380 3879 c-364 -42 -711 -195 -977 -431 -143 -128 -167 -174 -111
-220 42 -37 71 -24 176 73 454 424 1106 550 1677 324 554 -220 944 -739 1001
-1332 l7 -73 -112 0 c-105 0 -113 -1 -136 -25 -32 -31 -32 -69 0 -100 23 -24
31 -25 136 -25 l112 0 -7 -72 c-18 -182 -75 -387 -153 -548 -49 -98 -157 -265
-217 -335 l-34 -39 -81 77 c-91 87 -122 97 -166 52 -43 -43 -33 -69 67 -171
l70 -71 -84 -65 c-101 -79 -170 -124 -265 -172 -195 -97 -333 -136 -609 -171
l-32 -3 -4 115 c-3 106 -5 116 -27 134 -30 24 -72 24 -102 0 -22 -18 -24 -28
-27 -134 l-4 -115 -32 3 c-216 27 -331 53 -460 105 -512 203 -871 628 -988
1170 -19 90 -22 134 -22 315 0 179 3 225 22 311 39 181 96 331 178 475 51 87
54 110 19 144 -31 32 -74 33 -102 3 -54 -58 -163 -291 -207 -443 -14 -47 -35
-143 -47 -213 -28 -169 -24 -461 10 -617 55 -254 149 -473 287 -665 280 -391
691 -645 1169 -722 104 -16 418 -16 515 1 415 72 758 257 1031 556 210 231
358 524 421 838 20 97 23 141 23 337 -1 255 -13 337 -85 551 -125 376 -395
716 -740 930 -318 197 -725 289 -1090 248z"/>
<path d="M2395 3389 c-192 -26 -426 -122 -580 -237 -159 -119 -310 -303 -390
-474 -82 -178 -115 -332 -115 -533 0 -155 18 -268 63 -403 l33 -98 -37 10
c-45 12 -85 -9 -95 -51 -14 -53 11 -74 151 -130 142 -57 160 -60 191 -38 23
15 114 254 114 297 0 13 -10 34 -23 46 -46 43 -108 20 -128 -48 -7 -22 -16
-40 -20 -40 -10 0 -45 95 -71 190 -29 108 -36 344 -14 463 78 413 380 745 784
863 369 107 785 4 1058 -261 l69 -66 -51 6 c-45 6 -55 3 -79 -18 -34 -29 -38
-78 -9 -108 17 -17 42 -21 162 -29 209 -14 210 -14 214 202 2 130 1 139 -19
160 -44 43 -123 16 -123 -43 0 -42 -13 -42 -56 2 -99 103 -301 226 -454 279
-167 57 -410 82 -575 59z"/>
<path d="M2886 2557 l-90 -83 -50 27 c-194 106 -451 20 -552 -186 -27 -55 -29
-69 -29 -170 0 -98 3 -116 26 -165 40 -85 108 -154 197 -197 72 -36 81 -38
172 -38 91 0 100 2 172 38 88 43 152 107 195 195 26 52 28 67 28 167 0 99 -3
115 -27 164 l-27 55 90 85 c77 74 89 91 89 119 0 42 -30 72 -72 72 -27 0 -49
-15 -122 -83z m-202 -195 c118 -64 162 -211 98 -333 -95 -182 -349 -182 -445
1 -25 49 -28 63 -25 126 3 58 9 80 33 120 32 51 112 109 164 117 50 9 126 -5
175 -31z"/>
</g>
</svg>
