<?xml version="1.0" standalone="no"?>
<!DOCTYPE svg PUBLIC "-//W3C//DTD SVG 20010904//EN"
 "http://www.w3.org/TR/2001/REC-SVG-20010904/DTD/svg10.dtd">
<svg version="1.0" xmlns="http://www.w3.org/2000/svg"
 width="512.000000pt" height="512.000000pt" viewBox="0 0 512.000000 512.000000"
 preserveAspectRatio="xMidYMid meet">
<metadata>
Created by potrace 1.16, written by Peter Selinger 2001-2019
</metadata>
<g transform="translate(0.000000,512.000000) scale(0.100000,-0.100000)"
fill="#000000" stroke="none">
<path d="M802 5099 c-47 -23 -83 -64 -107 -122 -13 -32 -15 -302 -15 -2421 l0
-2384 28 -53 c17 -34 44 -65 71 -84 l43 -30 1738 0 1738 0 43 30 c27 19 54 50
71 84 l28 53 0 2388 0 2388 -28 53 c-17 34 -44 65 -71 84 l-43 30 -1420 0
-1421 0 -20 -27 c-17 -22 -18 -31 -8 -58 22 -64 -80 -59 1422 -60 l1376 0 27
-21 26 -20 0 -2369 0 -2369 -26 -20 -27 -21 -1667 0 -1667 0 -27 21 -26 20 0
2369 0 2369 26 20 c24 19 40 21 169 21 162 0 181 7 191 71 5 29 2 41 -15 58
-20 20 -31 21 -193 21 -156 0 -177 -2 -216 -21z"/>
<path d="M1927 4638 c-40 -31 -36 -115 8 -132 22 -8 1228 -8 1250 0 45 18 48
111 5 134 -30 16 -1242 13 -1263 -2z"/>
<path d="M2325 4325 c-14 -13 -25 -36 -25 -50 0 -14 11 -37 25 -50 24 -25 24
-25 235 -25 211 0 211 0 235 25 14 13 25 36 25 50 0 14 -11 37 -25 50 -24 25
-24 25 -235 25 -211 0 -211 0 -235 -25z"/>
<path d="M1017 4302 l-27 -28 0 -1756 c0 -1731 0 -1756 20 -1780 11 -14 52
-45 92 -68 93 -55 203 -165 254 -254 69 -122 -6 -111 755 -114 l659 -2 25 24
c32 32 33 75 2 104 l-23 22 -631 0 -632 0 -37 62 c-54 88 -174 210 -261 265
l-73 46 0 1649 c0 1160 3 1648 11 1648 6 0 20 -5 32 -12 12 -6 69 -14 126 -17
l103 -6 19 -50 c82 -219 333 -317 561 -221 13 6 19 -1 28 -35 43 -157 176
-287 354 -346 115 -37 257 -37 372 0 178 59 311 189 354 346 9 34 15 41 28 35
103 -43 209 -50 305 -20 113 37 215 132 256 241 l19 50 98 6 c55 4 116 13 137
22 l37 16 0 -259 c0 -257 0 -259 23 -286 31 -35 82 -38 109 -5 17 22 18 47 18
356 l0 333 -26 31 c-36 43 -81 42 -143 -3 -80 -58 -135 -65 -292 -40 -54 9
-86 -24 -105 -108 -27 -119 -100 -195 -208 -218 -73 -15 -141 1 -210 51 -68
49 -105 51 -147 10 -22 -22 -29 -39 -29 -68 0 -55 -26 -147 -54 -191 -77 -123
-261 -197 -423 -172 -195 31 -323 158 -340 335 -5 58 -11 75 -34 97 -39 40
-77 37 -147 -12 -169 -118 -369 -38 -416 168 -19 85 -51 117 -105 108 -82 -15
-181 -18 -214 -7 -20 7 -56 28 -81 47 -58 44 -101 46 -139 6z"/>
<path d="M4001 3324 c-21 -27 -21 -27 -21 -1264 l0 -1237 -62 -38 c-88 -55
-202 -167 -261 -257 l-50 -78 -272 0 c-271 0 -272 0 -293 -23 -29 -31 -28 -72
3 -103 l25 -25 299 3 c348 3 329 -2 395 114 51 89 162 199 253 252 127 74 113
-98 113 1368 0 1261 0 1274 -20 1294 -30 30 -83 27 -109 -6z"/>
<path d="M1537 3023 c-19 -5 -47 -52 -47 -78 0 -9 11 -27 25 -40 l24 -25 619
0 c576 0 621 1 640 18 12 9 24 29 28 44 5 22 0 33 -24 58 l-30 30 -609 -1
c-334 -1 -616 -3 -626 -6z"/>
<path d="M3056 3009 c-33 -26 -36 -79 -6 -109 19 -19 33 -20 275 -20 l256 0
24 25 c28 27 30 42 14 78 -19 43 -45 47 -298 47 -226 0 -240 -1 -265 -21z"/>
<path d="M1534 2659 c-22 -11 -44 -48 -44 -73 0 -7 9 -25 21 -40 l20 -26 318
0 318 0 21 23 c27 29 28 67 3 98 l-19 24 -309 2 c-200 1 -315 -2 -329 -8z"/>
<path d="M2454 2658 c-22 -10 -44 -47 -44 -72 0 -7 9 -25 21 -40 l20 -26 569
0 569 0 20 26 c12 15 21 33 21 40 0 26 -23 62 -47 73 -32 15 -1099 14 -1129
-1z"/>
<path d="M1977 2150 c-60 -11 -169 -61 -202 -94 -25 -26 -33 -68 -16 -95 6 -9
-2 -28 -25 -58 -18 -24 -39 -62 -46 -85 -9 -31 -20 -44 -44 -54 -68 -29 -77
-73 -43 -214 l21 -85 -87 -150 c-107 -182 -118 -208 -109 -248 15 -72 71 -107
167 -107 l52 0 28 -50 c32 -57 68 -80 126 -80 59 0 87 30 181 195 46 80 85
144 87 142 1 -2 43 -73 91 -157 70 -121 96 -158 123 -172 70 -38 127 -17 182
66 l37 56 59 0 c44 0 66 6 92 23 38 26 66 89 56 128 -4 13 -50 98 -103 189
-96 164 -96 165 -85 205 28 98 35 172 22 244 -48 270 -295 446 -564 401z m208
-171 c76 -28 156 -108 184 -184 24 -63 28 -156 9 -216 -9 -33 -16 -40 -45 -45
-113 -21 -271 33 -352 122 -80 86 -138 259 -98 293 62 51 207 66 302 30z
m-426 -678 c34 -27 114 -74 143 -83 8 -3 -8 -39 -45 -106 -32 -56 -60 -102
-62 -102 -2 0 -13 16 -25 35 -28 45 -67 65 -125 65 -33 0 -46 4 -43 13 4 16
111 206 117 207 2 0 20 -13 40 -29z m717 -79 l62 -107 -51 -8 c-62 -9 -92 -28
-119 -73 -11 -19 -24 -32 -28 -29 -8 5 -120 197 -120 207 0 3 19 13 43 22 23
9 65 34 92 56 28 21 52 39 55 39 3 0 33 -48 66 -107z"/>
<path d="M2875 1845 c-14 -13 -25 -36 -25 -50 0 -14 11 -37 25 -50 l24 -25
341 0 341 0 26 26 c20 20 24 31 19 57 -13 67 -11 67 -388 67 l-339 0 -24 -25z"/>
<path d="M3151 1524 c-28 -36 -26 -60 8 -95 l29 -29 192 0 192 0 29 29 c34 35
36 59 8 95 l-20 26 -209 0 -209 0 -20 -26z"/>
</g>
</svg>
