<?xml version="1.0" standalone="no"?>
<!DOCTYPE svg PUBLIC "-//W3C//DTD SVG 20010904//EN"
 "http://www.w3.org/TR/2001/REC-SVG-20010904/DTD/svg10.dtd">
<svg version="1.0" xmlns="http://www.w3.org/2000/svg"
 width="512.000000pt" height="512.000000pt" viewBox="0 0 512.000000 512.000000"
 preserveAspectRatio="xMidYMid meet">
<metadata>
Created by potrace 1.16, written by Peter Selinger 2001-2019
</metadata>
<g transform="translate(0.000000,512.000000) scale(0.100000,-0.100000)"
fill="#000000" stroke="none">
<path d="M3861 5105 c-402 -91 -688 -356 -808 -750 -26 -85 -27 -101 -27 -285
0 -184 1 -200 27 -285 111 -365 369 -623 732 -732 85 -25 102 -27 285 -27 184
0 200 2 285 27 364 111 622 368 732 732 26 85 27 102 27 285 0 184 -1 200 -27
285 -112 366 -369 623 -732 731 -79 24 -111 27 -260 30 -122 3 -188 -1 -234
-11z m-44 -596 c15 -5 79 -60 140 -122 l113 -111 117 116 c94 93 125 118 155
123 100 19 192 -73 173 -173 -5 -30 -30 -61 -123 -154 l-116 -118 116 -117
c93 -94 118 -125 123 -155 19 -100 -73 -192 -173 -173 -30 5 -61 30 -154 123
l-118 116 -117 -116 c-94 -93 -125 -118 -155 -123 -100 -19 -192 73 -173 173
5 30 30 61 123 155 l116 117 -111 113 c-140 140 -153 169 -112 253 14 30 32
48 62 63 47 24 73 26 114 10z"/>
<path d="M2212 174 c3 -124 3 -126 31 -150 l28 -24 934 0 934 0 28 24 c28 24
28 26 31 150 l4 126 -997 0 -997 0 4 -126z"/>
</g>
</svg>
