<?xml version="1.0" standalone="no"?>
<!DOCTYPE svg PUBLIC "-//W3C//DTD SVG 20010904//EN"
 "http://www.w3.org/TR/2001/REC-SVG-20010904/DTD/svg10.dtd">
<svg version="1.0" xmlns="http://www.w3.org/2000/svg"
 width="512.000000pt" height="512.000000pt" viewBox="0 0 512.000000 512.000000"
 preserveAspectRatio="xMidYMid meet">
<metadata>
Created by potrace 1.16, written by Peter Selinger 2001-2019
</metadata>
<g transform="translate(0.000000,512.000000) scale(0.100000,-0.100000)"
fill="#000000" stroke="none">
<path d="M2352 5086 l-37 -34 -3 -336 -3 -336 -69 0 c-63 0 -72 -3 -104 -31
-38 -33 -52 -77 -41 -127 7 -36 363 -460 403 -481 33 -18 91 -18 124 0 44 23
397 446 404 485 9 50 -4 90 -42 124 -32 27 -41 30 -104 30 l-69 0 -3 336 -3
336 -37 34 -38 34 -170 0 -170 0 -38 -34z m300 -455 l3 -340 29 -30 c22 -23
41 -31 87 -38 l59 -8 -133 -157 c-72 -86 -134 -157 -137 -157 -3 0 -65 71
-137 157 l-133 157 59 8 c46 7 65 15 87 38 l29 30 3 340 3 339 89 0 89 0 3
-339z"/>
<path d="M218 4902 l-118 -118 0 -59 0 -59 232 -233 232 -233 -42 -42 c-53
-55 -67 -93 -52 -146 11 -42 58 -91 88 -93 9 0 139 -10 287 -23 149 -12 285
-19 303 -15 43 9 80 43 90 83 6 20 0 135 -14 311 -13 154 -23 285 -24 292 -1
25 -53 73 -92 83 -53 15 -91 1 -146 -52 l-42 -42 -233 232 -233 232 -59 0 -59
0 -118 -118z m412 -287 l237 -235 47 0 c40 0 52 5 90 40 l44 40 5 -42 c12 -91
30 -368 24 -374 -6 -6 -266 9 -370 22 l-48 6 41 44 c35 38 40 50 40 90 l0 47
-237 239 -237 238 59 60 c33 33 62 60 64 60 3 0 111 -106 241 -235z"/>
<path d="M4433 4788 l-233 -232 -42 42 c-55 53 -93 67 -146 52 -39 -10 -91
-58 -92 -83 -1 -7 -11 -136 -24 -287 -12 -156 -19 -290 -15 -309 10 -44 46
-80 90 -90 19 -4 153 3 309 15 151 13 280 23 287 23 26 2 73 54 83 93 15 53 1
91 -52 146 l-42 42 232 233 232 233 0 59 0 59 -118 118 -118 118 -59 0 -59 0
-233 -232z m362 2 l59 -60 -237 -238 -237 -239 0 -47 c0 -40 5 -52 40 -90 l40
-44 -42 -5 c-93 -13 -369 -30 -375 -24 -6 6 10 260 24 370 l6 47 43 -40 c38
-35 50 -40 90 -40 l47 0 236 235 c130 129 238 235 241 235 3 0 32 -27 65 -60z"/>
<path d="M2227 3569 c-83 -11 -194 -49 -266 -92 -111 -65 -230 -198 -281 -310
-26 -56 -25 -83 4 -112 21 -21 23 -29 15 -62 -5 -21 -9 -62 -9 -90 0 -46 -3
-53 -19 -53 -11 0 -29 -12 -40 -26 -19 -25 -21 -40 -21 -206 0 -151 -3 -184
-17 -211 -26 -48 -24 -178 3 -238 38 -81 122 -148 206 -164 34 -7 36 -8 42
-60 17 -145 103 -303 231 -423 47 -44 85 -84 85 -91 0 -8 -77 -11 -277 -11
-203 0 -296 -4 -346 -15 -179 -38 -324 -179 -372 -360 -10 -39 -15 -105 -15
-196 0 -123 2 -139 21 -163 11 -14 27 -26 35 -26 11 0 14 -18 14 -85 0 -52 -4
-85 -10 -85 -6 0 -22 -11 -35 -25 -25 -24 -25 -27 -25 -190 0 -182 5 -202 60
-249 l32 -26 1318 0 1318 0 32 26 c61 52 60 42 60 512 0 243 -4 453 -10 483
-24 132 -130 274 -251 339 -97 51 -161 60 -466 60 -242 0 -273 2 -273 16 0 8
36 49 80 91 123 115 210 276 226 418 6 52 8 53 42 60 84 16 168 83 206 164 30
67 29 189 -3 251 -13 25 -35 57 -49 72 l-25 27 37 388 c20 213 36 411 36 439
0 103 -72 195 -174 221 -59 15 -1003 17 -1119 2z m468 -489 c143 -36 253 -115
335 -236 88 -133 94 -161 98 -514 4 -351 -2 -398 -60 -520 -71 -148 -209 -263
-368 -305 -70 -19 -210 -19 -280 0 -203 54 -372 230 -416 434 -10 48 -14 146
-14 357 0 258 2 300 20 369 52 205 208 361 411 415 96 25 177 25 274 0z m-855
-785 c0 -153 -4 -159 -66 -102 -66 60 -56 171 19 217 18 11 35 20 40 20 4 0 7
-61 7 -135z m1481 120 c85 -44 92 -172 13 -234 -51 -40 -54 -33 -54 114 0 74
2 135 5 135 4 0 19 -7 36 -15z m-761 -1077 c86 0 133 5 183 20 l69 20 -4 -127
c-3 -104 -7 -133 -25 -166 -80 -151 -281 -180 -400 -58 -56 58 -73 116 -73
248 l0 102 68 -19 c49 -15 97 -20 182 -20z m-202 -482 c65 -43 133 -59 227
-54 73 4 95 10 155 40 l70 36 0 -364 0 -364 -250 0 -250 0 0 365 c0 201 2 365
5 365 3 0 22 -11 43 -24z"/>
<path d="M798 2924 c-41 -21 -58 -63 -58 -139 l0 -65 -76 0 c-41 0 -84 -5 -95
-11 -51 -27 -41 -111 17 -135 41 -17 185 -18 233 -1 46 16 70 52 78 115 3 28
8 52 10 52 4 0 259 -215 296 -250 17 -16 10 -23 -141 -153 l-160 -135 -6 60
c-6 48 -13 67 -36 89 l-28 29 -341 0 -341 0 0 90 0 90 64 0 c34 0 78 5 96 11
60 21 74 110 21 138 -31 17 -236 14 -270 -3 -56 -29 -61 -49 -61 -237 l0 -171
34 -34 34 -34 336 0 336 0 0 -67 c0 -108 38 -154 126 -156 32 0 54 7 77 23 70
52 420 355 434 377 16 25 21 83 9 121 -4 12 -80 84 -169 160 -321 274 -292
252 -345 252 -26 -1 -59 -7 -74 -16z"/>
<path d="M4133 2883 c-284 -239 -393 -336 -399 -355 -11 -35 -6 -98 10 -122
14 -22 362 -323 433 -376 23 -16 45 -23 77 -23 88 2 126 48 126 156 l0 67 336
0 336 0 34 34 34 34 0 171 c0 265 23 251 -415 251 l-325 0 0 65 c0 109 -40
155 -134 155 -41 0 -53 -6 -113 -57z m90 -195 c8 -63 32 -99 78 -115 23 -8
133 -12 352 -12 l317 -1 0 -90 0 -90 -341 0 -341 0 -28 -29 c-23 -22 -30 -41
-36 -89 l-6 -60 -159 135 c-88 75 -157 139 -154 142 20 20 301 260 306 260 3
1 9 -23 12 -51z"/>
</g>
</svg>
