<?xml version="1.0" standalone="no"?>
<!DOCTYPE svg PUBLIC "-//W3C//DTD SVG 20010904//EN"
 "http://www.w3.org/TR/2001/REC-SVG-20010904/DTD/svg10.dtd">
<svg version="1.0" xmlns="http://www.w3.org/2000/svg"
 width="512.000000pt" height="512.000000pt" viewBox="0 0 512.000000 512.000000"
 preserveAspectRatio="xMidYMid meet">
<metadata>
Created by potrace 1.16, written by Peter Selinger 2001-2019
</metadata>
<g transform="translate(0.000000,512.000000) scale(0.100000,-0.100000)"
fill="#000000" stroke="none">
<path d="M4335 3244 c-16 -8 -127 -112 -246 -231 l-217 -215 -93 30 c-134 44
-228 62 -356 69 l-113 6 0 -152 0 -151 59 0 c72 0 205 -23 293 -50 l66 -20 56
-167 56 -168 -39 -38 -38 -39 -96 47 c-96 46 -239 85 -319 85 l-38 0 0 -150 0
-150 43 0 c42 0 134 -22 170 -42 15 -8 -7 -34 -155 -189 -95 -98 -178 -189
-185 -201 -19 -35 -16 -108 7 -145 34 -56 103 -84 167 -68 18 4 96 74 215 193
l187 186 21 -46 c92 -210 6 -480 -194 -610 -69 -44 -169 -78 -232 -78 l-44 0
0 -150 0 -150 38 0 c78 0 223 39 315 83 420 205 575 727 335 1130 l-22 37 38
39 38 39 169 -57 169 -56 15 -40 c116 -320 66 -715 -128 -1007 -198 -298 -528
-494 -869 -515 l-98 -6 0 -150 0 -150 118 6 c371 21 732 204 992 504 25 28 51
60 57 70 7 10 31 44 53 76 22 32 40 60 40 63 0 2 11 22 25 44 38 60 104 231
131 339 66 266 53 563 -36 820 l-30 86 214 215 c117 118 221 226 230 240 23
36 21 124 -4 166 -26 41 -63 58 -267 125 l-163 53 -56 171 c-31 93 -65 187
-76 207 -33 67 -134 98 -203 62z"/>
</g>
</svg>
