<?xml version="1.0" standalone="no"?>
<!DOCTYPE svg PUBLIC "-//W3C//DTD SVG 20010904//EN"
 "http://www.w3.org/TR/2001/REC-SVG-20010904/DTD/svg10.dtd">
<svg version="1.0" xmlns="http://www.w3.org/2000/svg"
 width="512.000000pt" height="512.000000pt" viewBox="0 0 512.000000 512.000000"
 preserveAspectRatio="xMidYMid meet">
<metadata>
Created by potrace 1.16, written by Peter Selinger 2001-2019
</metadata>
<g transform="translate(0.000000,512.000000) scale(0.100000,-0.100000)"
fill="#000000" stroke="none">
<path d="M2142 5109 c-139 -21 -268 -86 -372 -189 -79 -78 -129 -158 -167
-265 -27 -77 -28 -88 -31 -317 l-4 -237 -33 -11 c-48 -16 -116 -80 -145 -136
-24 -46 -25 -58 -25 -209 0 -145 2 -164 22 -201 48 -90 150 -153 264 -161 l66
-5 5 -107 c10 -197 88 -372 230 -515 l78 -78 0 -144 0 -143 -55 -17 c-30 -10
-56 -16 -57 -13 -2 2 -16 29 -32 59 -44 83 -119 182 -191 249 -215 201 -491
296 -788 270 -450 -39 -826 -387 -897 -832 -18 -110 -8 -331 20 -432 41 -154
144 -338 195 -351 49 -12 105 31 105 80 0 7 -19 43 -42 82 -90 148 -129 287
-129 454 0 393 265 727 651 822 117 29 284 28 395 -1 296 -79 522 -299 611
-596 51 -171 34 -386 -45 -560 -63 -137 -174 -273 -296 -360 -262 -187 -606
-202 -889 -40 -94 53 -134 58 -165 19 -28 -35 -27 -79 2 -107 49 -49 261 -142
367 -162 76 -14 69 34 72 -460 l3 -444 23 -23 23 -23 1640 0 1641 0 19 24 c18
22 19 45 19 466 l0 442 72 13 c390 69 712 380 798 768 37 166 24 391 -32 557
-100 297 -380 557 -682 635 -140 35 -188 25 -202 -46 -10 -53 21 -78 130 -103
381 -88 647 -425 647 -821 0 -389 -256 -720 -636 -822 -106 -28 -298 -30 -400
-4 -328 85 -583 355 -640 681 -25 143 -17 261 27 395 90 280 300 483 584 565
98 29 109 35 119 72 9 37 -12 79 -46 94 -26 10 -43 9 -112 -10 -260 -69 -491
-250 -618 -485 -23 -42 -46 -75 -53 -73 -6 2 -35 12 -63 21 l-53 18 0 148 0
148 44 36 c25 20 67 66 95 104 100 133 155 283 167 457 l7 92 62 6 c115 9 222
75 266 165 22 43 24 60 24 197 0 132 -3 155 -22 197 -26 56 -87 118 -142 142
l-39 18 -4 242 c-3 232 -4 244 -30 314 -39 107 -83 177 -168 263 -59 59 -95
85 -160 117 -151 74 -158 75 -585 78 -209 1 -408 -2 -443 -7z m813 -164 c194
-41 350 -188 400 -376 11 -38 15 -113 15 -258 l0 -204 -97 5 c-141 8 -199 32
-288 122 -78 79 -130 167 -165 283 -23 78 -46 106 -85 106 -35 0 -62 -27 -97
-98 -82 -163 -213 -317 -313 -367 -79 -40 -140 -48 -375 -48 l-220 0 0 198 c0
145 4 213 15 257 49 188 206 339 395 379 96 21 718 21 815 1z m-215 -682 c46
-93 152 -198 247 -246 63 -31 97 -41 211 -63 l23 -5 -3 -382 c-4 -332 -7 -389
-22 -437 -50 -155 -154 -276 -297 -348 -116 -58 -217 -82 -348 -82 -207 0
-378 66 -506 195 -82 82 -118 144 -145 251 -18 70 -20 111 -20 441 l0 363 158
0 c184 0 267 15 367 64 96 48 173 119 241 226 32 50 59 90 60 90 1 0 16 -30
34 -67z m-1020 -518 l0 -205 -27 0 c-52 0 -107 22 -140 55 l-33 33 0 112 c0
88 4 118 17 141 22 37 86 69 141 69 l42 0 0 -205z m1778 191 c15 -8 38 -26 52
-41 24 -25 25 -32 25 -150 0 -118 -1 -125 -25 -150 -36 -39 -73 -55 -125 -55
l-45 0 0 205 0 205 45 0 c26 0 58 -6 73 -14z m-1251 -1366 c166 -63 409 -65
587 -4 39 13 72 24 74 24 1 0 2 -47 2 -105 l0 -105 -181 -135 -180 -136 -179
133 -179 133 -1 108 c0 59 1 107 3 107 1 0 26 -9 54 -20z m4 -442 c133 -101
147 -114 131 -126 -29 -22 -359 -222 -366 -222 -3 0 -6 98 -6 219 l0 218 33
11 c17 5 38 10 46 11 7 1 81 -50 162 -111z m800 100 l39 -11 0 -223 0 -224
-182 111 c-101 61 -189 117 -196 124 -11 10 13 32 133 124 81 61 152 111 158
111 5 0 27 -5 48 -12z m-402 -378 l100 -61 -35 -62 c-19 -34 -40 -72 -46 -84
-11 -22 -17 -23 -119 -23 l-107 0 -46 82 c-28 49 -43 85 -37 91 7 7 182 115
188 117 1 0 47 -27 102 -60z m-378 -257 l40 -72 -71 -662 c-38 -364 -70 -670
-70 -680 0 -18 -15 -19 -315 -19 l-315 0 0 463 0 462 60 44 c119 87 257 253
311 376 11 25 25 45 32 45 7 0 68 34 137 75 143 86 124 89 191 -32z m744 32
c69 -42 134 -75 148 -75 21 0 30 -8 46 -45 52 -117 181 -277 293 -363 l48 -36
0 -473 0 -473 -309 0 -308 0 -6 38 c-3 20 -16 134 -28 252 -21 195 -25 217
-46 238 -32 32 -88 27 -116 -10 l-20 -27 22 -213 c12 -117 24 -228 28 -245 l5
-33 -222 0 -223 0 6 47 c3 27 33 319 68 651 l64 602 82 0 81 0 6 -37 c3 -21
15 -128 26 -238 26 -255 27 -262 51 -286 26 -26 83 -25 109 1 26 26 26 62 -5
344 -14 126 -25 241 -25 257 0 24 87 199 99 199 2 0 59 -34 126 -75z m832
-656 c35 -9 89 -20 120 -24 32 -3 68 -8 81 -11 l22 -4 0 -385 0 -385 -180 0
-180 0 0 429 0 430 38 -16 c20 -9 65 -24 99 -34z m-2467 -389 l0 -420 -180 0
-180 0 0 383 0 384 113 16 c61 9 137 25 167 35 30 11 61 20 68 21 9 1 12 -89
12 -419z"/>
<path d="M2176 3809 c-25 -19 -26 -25 -26 -109 0 -79 3 -92 22 -110 12 -11 35
-20 53 -20 18 0 41 9 53 20 19 18 22 31 22 110 0 84 -1 90 -26 109 -15 12 -37
21 -49 21 -12 0 -34 -9 -49 -21z"/>
<path d="M2833 3820 c-33 -14 -43 -42 -43 -125 0 -67 3 -79 25 -100 15 -16 36
-25 55 -25 19 0 40 9 55 25 22 21 25 33 25 99 0 90 -4 103 -41 121 -32 17 -44
18 -76 5z"/>
<path d="M2300 3293 c-44 -55 -10 -175 70 -247 57 -51 97 -66 177 -66 140 1
237 81 262 217 15 79 -12 123 -76 123 -43 0 -62 -19 -78 -80 -18 -69 -51 -100
-105 -100 -53 0 -98 38 -106 91 -10 60 -37 89 -84 89 -30 0 -43 -6 -60 -27z"/>
<path d="M1300 2469 c-53 -22 -92 -65 -245 -269 l-158 -211 -76 75 c-87 86
-126 106 -211 106 -132 0 -230 -98 -230 -230 0 -92 24 -128 213 -318 95 -95
186 -182 203 -192 75 -47 184 -46 259 3 39 25 528 668 552 726 10 23 14 59 11
106 -4 85 -33 138 -100 182 -35 24 -54 28 -117 30 -42 2 -87 -2 -101 -8z m140
-169 c44 -44 35 -60 -220 -400 -132 -176 -251 -327 -265 -336 -21 -13 -30 -14
-54 -5 -15 7 -103 88 -194 180 -181 181 -191 199 -145 248 43 46 70 34 194
-87 115 -113 136 -124 189 -104 9 4 104 123 211 265 189 252 195 259 229 259
22 0 43 -8 55 -20z"/>
<path d="M3683 2459 c-78 -38 -124 -113 -126 -203 -1 -86 18 -123 116 -223
l91 -93 -87 -89 c-97 -99 -120 -141 -120 -222 -1 -111 75 -205 186 -229 45
-11 62 -10 111 4 50 15 71 30 152 108 l94 91 94 -91 c81 -78 102 -93 152 -108
49 -14 66 -15 111 -4 111 24 185 115 185 228 0 84 -21 124 -119 224 l-87 88
87 88 c96 97 119 139 119 222 0 137 -93 230 -230 230 -88 0 -122 -18 -223
-117 l-89 -87 -89 87 c-48 48 -105 94 -124 102 -54 22 -153 19 -204 -6z m262
-259 c106 -104 127 -120 155 -120 28 0 49 16 155 120 123 121 142 132 190 114
22 -9 46 -59 38 -81 -3 -10 -59 -72 -124 -139 -158 -160 -158 -148 3 -310 102
-104 121 -128 121 -154 0 -41 -33 -73 -73 -73 -26 0 -49 17 -143 110 -62 61
-123 116 -135 123 -42 21 -74 2 -194 -117 -99 -99 -121 -116 -148 -116 -40 0
-73 32 -73 73 0 26 19 50 121 154 107 107 122 127 122 156 0 29 -15 49 -122
156 -104 106 -121 128 -121 155 0 39 32 69 75 69 25 0 51 -20 153 -120z"/>
</g>
</svg>
