<?xml version="1.0" standalone="no"?>
<!DOCTYPE svg PUBLIC "-//W3C//DTD SVG 20010904//EN"
 "http://www.w3.org/TR/2001/REC-SVG-20010904/DTD/svg10.dtd">
<svg version="1.0" xmlns="http://www.w3.org/2000/svg"
 width="512.000000pt" height="512.000000pt" viewBox="0 0 512.000000 512.000000"
 preserveAspectRatio="xMidYMid meet">
<metadata>
Created by potrace 1.16, written by Peter Selinger 2001-2019
</metadata>
<g transform="translate(0.000000,512.000000) scale(0.100000,-0.100000)"
fill="#000000" stroke="none">
<path d="M1375 5101 c-69 -42 -94 -98 -95 -213 l0 -78 -113 0 c-184 0 -321
-46 -459 -155 -109 -85 -208 -242 -244 -385 -61 -239 43 -656 239 -958 220
-338 573 -592 962 -693 73 -18 99 -31 140 -65 107 -91 281 -183 428 -228 15
-5 17 -22 17 -165 l0 -159 -137 -4 c-155 -5 -186 -14 -253 -75 -61 -54 -90
-121 -90 -205 l0 -68 -135 0 c-105 0 -143 -4 -168 -16 -45 -23 -85 -62 -110
-109 -22 -40 -22 -43 -22 -700 0 -657 0 -660 22 -700 25 -47 65 -86 110 -109
29 -14 136 -16 1090 -16 1005 0 1060 1 1098 19 45 20 91 69 112 118 10 26 13
161 13 688 0 710 2 686 -56 754 -49 58 -91 71 -241 71 l-133 0 0 54 c0 119
-57 213 -158 263 -53 26 -68 28 -194 31 l-138 4 0 158 0 158 68 22 c126 42
272 124 384 216 37 31 66 44 140 63 245 62 498 197 688 369 57 52 64 62 64 96
0 28 -6 43 -24 57 -43 33 -76 25 -144 -35 -108 -94 -218 -167 -351 -232 -71
-35 -135 -64 -142 -64 -6 0 6 30 28 67 21 37 44 82 49 99 8 24 25 39 68 62
225 120 429 334 552 581 76 152 130 355 130 487 0 172 -121 333 -288 384 -52
16 -93 20 -213 20 l-149 0 0 75 0 75 148 0 c213 0 314 -28 438 -122 174 -131
243 -343 195 -595 -35 -181 -91 -327 -207 -537 l-28 -49 20 -36 c16 -30 25
-36 57 -39 50 -4 66 10 126 117 171 307 244 661 182 886 -55 199 -180 354
-363 450 -101 53 -199 75 -339 75 l-117 0 -4 103 c-3 95 -5 107 -31 140 -55
72 39 67 -1239 67 -1105 0 -1154 -1 -1183 -19z m2303 -190 c6 -106 13 -101
-154 -101 -80 0 -153 -4 -163 -10 -10 -5 -24 -22 -30 -39 -10 -24 -10 -34 3
-59 20 -39 31 -42 142 -42 l95 0 -3 -682 -4 -683 -26 -96 c-64 -235 -204 -440
-392 -574 -83 -59 -234 -130 -332 -156 -99 -26 -308 -36 -414 -20 -383 59
-703 344 -816 726 -23 79 -27 114 -33 292 -5 184 -8 204 -26 222 -11 12 -34
23 -52 27 -26 5 -37 1 -57 -19 -26 -26 -26 -27 -25 -184 0 -87 4 -183 8 -213
5 -30 7 -56 6 -58 -5 -6 -114 86 -174 147 -161 166 -275 390 -315 624 -19 108
-9 168 38 230 71 93 140 117 334 117 l102 0 0 -200 0 -201 25 -25 c21 -21 31
-24 58 -19 18 4 41 16 52 26 19 19 20 35 23 369 l3 350 759 0 c417 0 766 3
775 6 24 9 46 60 39 89 -13 52 21 50 -858 55 l-821 5 -3 64 c-2 35 -1 70 2 77
5 12 188 14 1118 12 l1113 -3 3 -54z m-2288 -326 l0 -75 -144 0 c-115 0 -157
-4 -208 -20 -167 -51 -288 -212 -288 -384 0 -81 23 -203 60 -316 104 -318 337
-596 638 -762 19 -10 38 -34 51 -64 12 -26 35 -70 52 -97 16 -27 29 -51 27
-53 -7 -6 -165 64 -234 104 -370 216 -631 575 -721 994 -24 112 -24 274 1 348
66 195 206 330 397 380 56 14 109 19 222 19 l147 1 0 -75z m2605 -235 c70 -11
124 -46 171 -107 47 -62 57 -122 38 -230 -40 -234 -154 -458 -315 -624 -62
-64 -168 -153 -175 -147 -2 2 1 58 6 123 5 66 10 317 10 558 l0 437 103 0 c56
0 129 -5 162 -10z m-1285 -2211 l0 -149 -150 0 -150 0 0 149 0 148 150 1 150
0 0 -149z m420 -314 c39 -20 60 -63 60 -125 l0 -50 -635 0 -635 0 1 38 c0 59
21 104 58 129 l34 23 544 0 c467 0 548 -2 573 -15z m469 -349 c21 -19 21 -22
21 -628 l0 -608 -1000 0 c-987 0 -1000 0 -1020 20 -20 20 -20 33 -20 630 l0
610 999 -2 c966 -3 1000 -4 1020 -22z"/>
<path d="M1687 1316 c-25 -25 -36 -46 -40 -81 -9 -62 -9 -758 0 -820 4 -35 15
-56 40 -81 l34 -34 830 0 c751 0 834 2 859 16 61 37 60 30 60 509 0 479 1 472
-60 509 -25 14 -85 16 -559 16 -518 0 -532 -1 -551 -20 -28 -28 -26 -75 5
-105 l24 -25 496 0 495 0 0 -375 0 -375 -760 0 -760 0 0 375 0 375 114 0 c130
0 153 10 162 70 4 27 1 40 -16 58 -20 21 -28 22 -180 22 l-159 0 -34 -34z"/>
<path d="M2216 1029 c-19 -15 -26 -30 -26 -54 0 -24 7 -39 26 -54 26 -20 38
-21 346 -21 l319 0 24 25 c14 13 25 36 25 50 0 14 -11 37 -25 50 l-24 25 -319
0 c-308 0 -320 -1 -346 -21z"/>
<path d="M2036 729 c-19 -15 -26 -30 -26 -54 0 -24 7 -39 26 -54 26 -21 36
-21 526 -21 l499 0 24 25 c14 13 25 36 25 50 0 14 -11 37 -25 50 l-24 25 -499
0 c-490 0 -500 0 -526 -21z"/>
</g>
</svg>
